{"title":"Splice.2010.R5 LINE.XVID.FEEL-FREE","uid":5746700,"size":666763399,"categoryP":"video","categoryS":"movies","magnet":"?xt=urn:btih:9522d9506482214f0eae4d3cdf90504edcc0eba5&amp;dn=Splice.2010.R5+LINE.XVID.FEEL-FREE&amp;tr=udp%3A%2F%2Ftracker.openbittorrent.com%3A80&amp;tr=udp%3A%2F%2Fopen.demonii.com%3A1337&amp;tr=udp%3A%2F%2Ftracker.coppersurfer.tk%3A6969&amp;tr=udp%3A%2F%2Fexodus.desync.com%3A6969","seeders":0,"leechers":0,"uploader":"hiest","files":10,"time":1281242545,"description":"Genre:Horror | Sci-Fi | Thriller\nLanguage: English\nIMDb:http://www.imdb.com/title/tt1017460/\nVideo Source:R5\nAudio Source:CiNE21\nSubtitles: ROMANA\n..............................................\nGeneral\nComplete name : Splice.2010.R5 LINE.XVID.FEEL-FREE\nFormat : AVI\nFormat/Info : Audio Video Interleave\nFile size : 636 MiB\nDuration : 1h 44mn\nOverall bit rate : 853 Kbps\nWriting application : VirtualDubMod\n..............................................\nVideo\nID : 0\nFormat : MPEG-4 Visual\nFormat profile : AdvancedSimple@L5\nFormat settings, BVOP : Yes\nFormat settings, QPel : No\nFormat settings, GMC : No warppoints\nFormat settings, Matrix : Custom\nCodec ID : XVID\nCodec ID/Hint : XviD\nDuration : 1h 44mn\nBit rate : 655 Kbps\nWidth : 652 pixels\nHeight : 352 pixels\nDisplay aspect ratio : 1.852\nFrame rate : 23.976 fps\nResolution : 24 bits\nColorimetry : 4:2:0\nScan type : Progressive\nBits/(Pixel*Frame) : 0.119\nStream size : 488 MiB (77%)\nWriting library : XviD 1.2.1 (UTC 2008-12-04)\n...............................................\nAudio\nID : 1\nFormat : MPEG Audio\nFormat version : Version 1\nFormat profile : Layer 3\nFormat settings, Mode : Joint stereo / MS Stereo\nCodec ID : 55\nCodec ID/Hint : MP3\nDuration : 1h 42mn\nBit rate mode : Constant\nBit rate : 192 Kbps\nChannel(s) : 2 channels\nSampling rate : 48.0 KHz\nResolution : 16 bits\nVideo delay : 16ms\nStream size : 141 MiB (22%)\nAlignment : Split accross interleaves\nInterleave, duration : 42 ms (1.02 video frame)\nInterleave, preload duration : 500 ms\n................................................\nPlot:\nElsa and Clive, two young rebellious scientists, defy legal and ethical boundaries and forge ahead with","torrent":{"xt":"urn:btih:9522d9506482214f0eae4d3cdf90504edcc0eba5","amp;dn":"Splice.2010.R5+LINE.XVID.FEEL-FREE","amp;tr":["udp%3A%2F%2Ftracker.openbittorrent.com%3A80","udp%3A%2F%2Fopen.demonii.com%3A1337","udp%3A%2F%2Ftracker.coppersurfer.tk%3A6969","udp%3A%2F%2Fexodus.desync.com%3A6969"],"infoHash":"9522d9506482214f0eae4d3cdf90504edcc0eba5","infoHashBuffer":{"type":"Buffer","data":[149,34,217,80,100,130,33,79,14,174,77,60,223,144,80,78,220,192,235,165]},"announce":[],"urlList":[]}}